<svg width="16" height="16" viewBox="0 0 16 16" fill="none" xmlns="http://www.w3.org/2000/svg">
<path opacity="0.8" d="M8.24114 0.400391C4.04147 0.400391 0.625 3.75055 0.625 7.86845C0.625353 11.9859 4.04197 15.3359 8.24114 15.3359C12.4407 15.3359 15.8573 11.986 15.8573 7.86838C15.8572 3.75055 12.4407 0.400391 8.24114 0.400391ZM8.24114 1.44021C9.79797 1.44021 11.2295 1.97544 12.3552 2.86768L3.14135 11.9021C2.23154 10.7983 1.68561 9.39477 1.68547 7.86838C1.68547 4.32391 4.62636 1.44021 8.24114 1.44021ZM8.24114 14.2961C6.56433 14.2961 5.0328 13.6752 3.87222 12.6561L13.1241 3.58432C14.1636 4.7223 14.7967 6.22415 14.7967 7.86845C14.7967 11.4126 11.8558 14.2961 8.24114 14.2961Z" fill="#D20001"/>
</svg>
