<svg width="17" height="17" viewBox="0 0 17 17" fill="none" xmlns="http://www.w3.org/2000/svg">
<path fill-rule="evenodd" clip-rule="evenodd" d="M8.50001 17C6.81887 17 5.17547 16.5015 3.77765 15.5675C2.37983 14.6335 1.29037 13.306 0.64703 11.7528C0.00368521 10.1996 -0.164645 8.49057 0.163329 6.84173C0.491303 5.1929 1.30085 3.67834 2.4896 2.4896C3.67835 1.30085 5.19288 0.491303 6.84172 0.163329C8.49056 -0.164645 10.1997 0.00368309 11.7528 0.647028C13.306 1.29037 14.6335 2.37984 15.5675 3.77766C16.5015 5.17547 17 6.81886 17 8.5C17 9.61624 16.7801 10.7215 16.353 11.7528C15.9258 12.7841 15.2997 13.7211 14.5104 14.5104C12.9163 16.1045 10.7544 17 8.50001 17ZM6.99549 5.92406C6.85584 5.78428 6.66641 5.7057 6.46883 5.7056C6.27125 5.70551 6.08171 5.7839 5.94193 5.92355C5.80215 6.06319 5.72358 6.25264 5.72349 6.45023C5.72339 6.64781 5.80179 6.83733 5.94143 6.97711V6.97711C6.77665 7.8129 6.77694 9.16797 5.94143 10.0035V10.0035C5.83882 10.1079 5.76926 10.2402 5.74144 10.3839C5.71362 10.5276 5.72878 10.6763 5.78502 10.8115C5.84126 10.9466 5.93608 11.0622 6.05763 11.1438C6.17919 11.2253 6.32208 11.2692 6.46846 11.27C6.56559 11.2711 6.6619 11.252 6.75124 11.2138C6.84057 11.1756 6.92096 11.1193 6.98732 11.0484V11.0484C7.82424 10.2165 9.17577 10.2165 10.0127 11.0484V11.0484C10.0815 11.1184 10.1635 11.1741 10.2539 11.2121C10.3444 11.2502 10.4416 11.2698 10.5397 11.27C10.7376 11.268 10.9269 11.1884 11.0668 11.0484C11.2057 10.9083 11.2836 10.7191 11.2836 10.5218C11.2836 10.3246 11.2057 10.1353 11.0668 9.99531V9.99531C10.2319 9.16498 10.2344 7.80998 11.0668 6.97711V6.97711C11.2064 6.83733 11.2848 6.64781 11.2847 6.45023C11.2846 6.25264 11.206 6.06319 11.0662 5.92355C10.9265 5.7839 10.7369 5.70551 10.5394 5.7056C10.3418 5.7057 10.1523 5.78428 10.0127 5.92406V5.92406C9.18 6.75618 7.82592 6.75843 6.99549 5.92406V5.92406Z" fill="#8B8B8B"/>
</svg>
