<svg width="44" height="44" viewBox="0 0 44 44" fill="none" xmlns="http://www.w3.org/2000/svg">
<circle cx="22" cy="22" r="22" fill="#E8FBFE"/>
<path d="M31.5436 16.4603H25.1176C25.6873 16.1705 26.2379 15.814 26.6816 15.3698C27.6841 14.3661 27.6841 12.7335 26.6816 11.7298C25.7101 10.7572 24.0174 10.7563 23.0459 11.7298C22.33 12.4464 21.8251 13.4319 21.5001 14.3478C21.175 13.4319 20.6701 12.4464 19.9543 11.7298C18.9819 10.7563 17.2881 10.7572 16.3185 11.7298C15.316 12.7335 15.316 14.3661 16.3185 15.3698C16.7622 15.814 17.3128 16.1705 17.8825 16.4603H11.4565C11.2045 16.4603 11 16.665 11 16.9173V20.5737C11 20.826 11.2045 21.0308 11.4565 21.0308H11.913V31.543C11.913 31.7953 12.1175 32 12.3695 32H30.6305C30.8825 32 31.087 31.7953 31.087 31.543V21.0308H31.5435C31.7955 21.0308 32 20.826 32 20.5737V16.9173C32.0001 16.665 31.7956 16.4603 31.5436 16.4603ZM19.2174 31.086H12.8261V21.0308H19.2174V31.086ZM19.2174 20.1167H11.9131V17.3744H19.2174V20.1167ZM16.964 14.7235C16.3176 14.0763 16.3176 13.0233 16.964 12.3761C17.2772 12.0616 17.6935 11.8897 18.1364 11.8897C18.5792 11.8897 18.9946 12.0616 19.3087 12.3761C20.482 13.5507 21.0335 15.7308 21.0463 16.4456C21.0463 16.4502 21.0454 16.4566 21.0454 16.4603H20.9952C20.2529 16.4347 18.1227 15.8826 16.964 14.7235ZM22.8696 31.086H20.1305V21.0308H22.8696V31.086ZM22.8696 20.1167H20.1305V17.3744H22.8696V20.1167ZM22.005 16.4603H21.9548C21.9548 16.4566 21.9539 16.4502 21.9539 16.4457C21.9667 15.7308 22.5181 13.5507 23.6914 12.3761C24.0055 12.0616 24.4209 11.8898 24.8637 11.8898C25.3066 11.8898 25.7229 12.0616 26.0361 12.3761C26.6825 13.0233 26.6825 14.0763 26.0361 14.7235C24.8774 15.8826 22.7473 16.4347 22.005 16.4603ZM30.174 31.086H23.7827V21.0308H30.174V31.086ZM31.0871 20.1167H23.7827V17.3744H31.0871V20.1167Z" fill="#7B7B7B"/>
</svg>
