<svg width="35" height="35" viewBox="0 0 35 35" fill="none" xmlns="http://www.w3.org/2000/svg">
<rect x="0.25" y="0.25" width="34.5" height="34.5" rx="17.25" stroke="#D20001" stroke-width="0.5"/>
<path fill-rule="evenodd" clip-rule="evenodd" d="M14.3803 8.52752C14.3804 8.38775 14.4351 8.2537 14.5326 8.15484C14.6301 8.05598 14.7624 8.0004 14.9003 8.0003L20.0994 8C20.2373 8.00032 20.3695 8.05606 20.467 8.155C20.5645 8.25394 20.6192 8.38801 20.6193 8.52782V9.83102H14.3803V8.52752ZM22.9287 26.2455C22.9155 26.451 22.8252 26.6436 22.6764 26.7839C22.5277 26.9241 22.3316 27.0014 22.1284 27H12.8115C12.6084 26.9994 12.413 26.921 12.2645 26.7805C12.1161 26.6399 12.0256 26.4477 12.0113 26.2423L11.214 14.4221H23.7796L22.9289 26.2454L22.9287 26.2455ZM25 13.3515H10V12.1269C10.0002 11.8021 10.1276 11.4906 10.3542 11.261C10.5808 11.0313 10.888 10.9021 11.2085 10.9018L23.7913 10.9014C24.1118 10.9019 24.419 11.0312 24.6455 11.2609C24.872 11.4906 24.9994 11.802 24.9997 12.1268V13.3514L25 13.3515ZM15.0848 24.1822C15.0848 24.2524 15.0984 24.322 15.125 24.387C15.1515 24.4519 15.1904 24.5109 15.2394 24.5606C15.2885 24.6103 15.3467 24.6497 15.4108 24.6766C15.4748 24.7035 15.5435 24.7174 15.6129 24.7174C15.6822 24.7174 15.7509 24.7035 15.8149 24.6766C15.879 24.6497 15.9372 24.6103 15.9863 24.5606C16.0353 24.5109 16.0742 24.4519 16.1007 24.387C16.1273 24.322 16.1409 24.2524 16.1409 24.1822V16.6767C16.1398 16.5356 16.0837 16.4006 15.9849 16.3012C15.886 16.2017 15.7524 16.1459 15.6131 16.1459C15.4739 16.1458 15.3402 16.2015 15.2413 16.3009C15.1424 16.4003 15.0862 16.5352 15.085 16.6764V24.1822H15.0848ZM18.8526 24.1822C18.8526 24.3241 18.9082 24.4603 19.0072 24.5607C19.1063 24.661 19.2406 24.7174 19.3807 24.7174C19.5208 24.7174 19.6551 24.661 19.7542 24.5607C19.8532 24.4603 19.9089 24.3241 19.9089 24.1822V16.6767C19.9077 16.5356 19.8516 16.4006 19.7528 16.3011C19.6539 16.2017 19.5203 16.1459 19.381 16.1458C19.2417 16.1458 19.108 16.2015 19.0091 16.3009C18.9101 16.4002 18.8539 16.5352 18.8527 16.6764L18.8526 24.1822Z" fill="#D20001"/>
</svg>
