<svg width="13" height="15" viewBox="0 0 13 15" fill="none" xmlns="http://www.w3.org/2000/svg">
<path d="M8.38994 5.23633C8.19934 5.23633 8.04484 5.38782 8.04484 5.5747V11.97C8.04484 12.1568 8.19934 12.3084 8.38994 12.3084C8.58058 12.3084 8.73504 12.1568 8.73504 11.97V5.5747C8.73504 5.38782 8.58058 5.23633 8.38994 5.23633ZM4.31776 5.23633C4.12716 5.23633 3.97266 5.38782 3.97266 5.5747V11.97C3.97266 12.1568 4.12716 12.3084 4.31776 12.3084C4.50839 12.3084 4.66286 12.1568 4.66286 11.97V5.5747C4.66286 5.38782 4.50839 5.23633 4.31776 5.23633Z" fill="white"/>
<path d="M1.35123 4.30152V12.6384C1.35123 13.1312 1.53551 13.5939 1.85742 13.9259C2.01593 14.0907 2.20702 14.222 2.41902 14.3119C2.63103 14.4018 2.85949 14.4483 3.09046 14.4487H9.61991C9.85088 14.4483 10.0794 14.4018 10.2914 14.3119C10.5034 14.222 10.6945 14.0907 10.8529 13.9259C11.1749 13.5939 11.3591 13.1312 11.3591 12.6384V4.30152C11.9991 4.13497 12.4137 3.52881 12.3281 2.88498C12.2424 2.24125 11.6831 1.75974 11.0209 1.7596H9.25403V1.33663C9.25502 1.16055 9.22033 0.986034 9.15197 0.823208C9.08361 0.660382 8.98295 0.512493 8.85582 0.388128C8.72866 0.263775 8.57757 0.165433 8.41132 0.0988117C8.24507 0.0321904 8.06699 -0.00138209 7.8874 4.38623e-05H4.82301C4.64341 -0.00138658 4.46532 0.0321837 4.29907 0.0988051C4.13281 0.165427 3.98172 0.263771 3.85455 0.388128C3.72742 0.512493 3.62676 0.660382 3.5584 0.823208C3.49004 0.986034 3.45535 1.16055 3.45634 1.33663V1.7596H1.6895C1.02732 1.75974 0.468012 2.24125 0.382255 2.88498C0.29667 3.52881 0.711308 4.13497 1.35123 4.30152ZM9.61991 13.772H3.0905C2.50045 13.772 2.04143 13.275 2.04143 12.6384V4.33127H10.6689V12.6384C10.6689 13.275 10.21 13.772 9.61991 13.772ZM4.14654 1.33663C4.14541 1.24939 4.16217 1.16282 4.19582 1.08205C4.22947 1.00129 4.27932 0.927971 4.34242 0.866458C4.4055 0.804909 4.48054 0.756407 4.56309 0.723828C4.64565 0.691249 4.73403 0.675256 4.82301 0.676797H7.8874C7.97637 0.675256 8.06476 0.691249 8.14731 0.723828C8.22986 0.756407 8.30491 0.804909 8.36798 0.866458C8.43109 0.927967 8.48094 1.00128 8.51458 1.08205C8.54822 1.16282 8.56497 1.24939 8.56383 1.33663V1.7596H4.14654V1.33663ZM1.6895 2.43636H11.021C11.364 2.43636 11.6422 2.70905 11.6422 3.04543C11.6422 3.38182 11.364 3.65451 11.021 3.65451H1.68946C1.3464 3.65451 1.06828 3.38182 1.06828 3.04543C1.06828 2.70905 1.34643 2.43636 1.6895 2.43636Z" fill="white"/>
<path d="M6.35487 5.23633C6.16427 5.23633 6.00977 5.38782 6.00977 5.5747V11.97C6.00977 12.1568 6.16427 12.3084 6.35487 12.3084C6.5455 12.3084 6.69997 12.1568 6.69997 11.97V5.5747C6.69997 5.38782 6.5455 5.23633 6.35487 5.23633Z" fill="white"/>
</svg>
