<svg width="15" height="19" viewBox="0 0 15 19" fill="none" xmlns="http://www.w3.org/2000/svg">
<path fill-rule="evenodd" clip-rule="evenodd" d="M4.38032 0.520495C4.38035 0.382582 4.43513 0.250323 4.53263 0.152779C4.63012 0.0552362 4.76236 0.000389978 4.90027 0.000292927L10.0994 0C10.2373 0.000319802 10.3695 0.0553179 10.467 0.152939C10.5645 0.250561 10.6193 0.382842 10.6193 0.520788V1.80663H4.38032V0.520495ZM12.9287 18.0025C12.9155 18.2053 12.8252 18.3953 12.6764 18.5337C12.5277 18.672 12.3316 18.7483 12.1284 18.7469H2.81148C2.60836 18.7464 2.41296 18.669 2.26453 18.5303C2.1161 18.3917 2.02562 18.202 2.01128 17.9994L1.214 6.33653H13.7796L12.9287 18.0025ZM15 5.28023H0V4.07191C0.00022299 3.75144 0.127611 3.44415 0.354194 3.21752C0.580778 2.99089 0.888037 2.86344 1.20851 2.86314L13.7913 2.86274C14.1118 2.86324 14.419 2.9908 14.6455 3.21746C14.872 3.44411 14.9994 3.75136 14.9997 4.0718L15 5.28023ZM5.08478 15.9666C5.08478 16.036 5.09844 16.1046 5.12498 16.1687C5.15151 16.2328 5.19041 16.291 5.23945 16.34C5.28848 16.3891 5.3467 16.428 5.41077 16.4545C5.47484 16.481 5.5435 16.4947 5.61285 16.4947C5.6822 16.4947 5.75087 16.481 5.81494 16.4545C5.87901 16.428 5.93722 16.3891 5.98626 16.34C6.03529 16.291 6.07419 16.2328 6.10073 16.1687C6.12727 16.1046 6.14093 16.036 6.14093 15.9666V8.56117C6.13982 8.4219 6.08373 8.28871 5.98487 8.1906C5.88601 8.0925 5.7524 8.03742 5.61313 8.03737C5.47385 8.03733 5.3402 8.09231 5.24128 8.19034C5.14235 8.28838 5.08617 8.42153 5.08496 8.5608L5.08478 15.9666ZM8.85255 15.9666C8.85255 16.1067 8.9082 16.241 9.00725 16.3401C9.10629 16.4391 9.24063 16.4948 9.3807 16.4948C9.52078 16.4948 9.65511 16.4391 9.75416 16.3401C9.85321 16.241 9.90885 16.1067 9.90885 15.9666V8.56117C9.90774 8.42188 9.85164 8.28867 9.75277 8.19055C9.6539 8.09243 9.52027 8.03735 9.38098 8.0373C9.24168 8.03725 9.10801 8.09224 9.00907 8.19029C8.91014 8.28834 8.85394 8.42151 8.85274 8.5608L8.85255 15.9666Z" fill="#FC0005"/>
</svg>
