<svg width="13" height="9" viewBox="0 0 13 9" fill="none" xmlns="http://www.w3.org/2000/svg">
<g opacity="0.5">
<path d="M11.5853 8.73071H1.26517C0.929725 8.73034 0.608128 8.5995 0.370942 8.36692C0.133756 8.13433 0.000351973 7.81899 0 7.49007V1.24064C0.000351973 0.911729 0.133756 0.596386 0.370942 0.363798C0.608128 0.131211 0.929725 0.000376544 1.26517 0H11.5853C11.9207 0.000376544 12.2423 0.131211 12.4795 0.363798C12.7167 0.596386 12.8501 0.911729 12.8505 1.24064V7.49007C12.8501 7.81899 12.7167 8.13433 12.4795 8.36692C12.2423 8.5995 11.9207 8.73034 11.5853 8.73071ZM1.26517 0.47416C1.05793 0.47438 0.859241 0.555208 0.712709 0.698907C0.566178 0.842606 0.483774 1.03744 0.483582 1.24064V7.49007C0.483774 7.69328 0.566178 7.88811 0.712709 8.03181C0.859241 8.17551 1.05793 8.25634 1.26517 8.25655H11.5853C11.7925 8.25634 11.9912 8.17551 12.1378 8.03181C12.2843 7.88811 12.3667 7.69328 12.3669 7.49007V1.24064C12.3667 1.03744 12.2843 0.842606 12.1378 0.698907C11.9912 0.555208 11.7925 0.47438 11.5853 0.47416H1.26517Z" fill="black"/>
<path d="M6.42473 5.75932C6.36579 5.75935 6.30887 5.73827 6.26466 5.70005L0.4375 0.656402L0.757511 0.300781L6.42473 5.20644L12.0922 0.301374L12.4122 0.656994L6.58504 5.70064C6.54072 5.73876 6.48369 5.75964 6.42473 5.75932Z" fill="black"/>
<path d="M0.304688 7.98546L4.21929 3.61193L4.58306 3.92487L0.668462 8.29829L0.304688 7.98546ZM8.27618 3.92037L8.63983 3.60742L12.5545 7.98072L12.1909 8.29367L8.27618 3.92037Z" fill="black"/>
</g>
</svg>
