<svg width="14" height="14" viewBox="0 0 14 14" fill="none" xmlns="http://www.w3.org/2000/svg">
<g opacity="0.5">
<path d="M12.5006 2.1274H11.3641V1.70798C11.3641 1.48551 11.2684 1.27214 11.0979 1.11483C10.9274 0.957518 10.6961 0.869141 10.455 0.869141C10.2139 0.869141 9.98265 0.957518 9.81216 1.11483C9.64166 1.27214 9.54588 1.48551 9.54588 1.70798V2.1274H7.72762V1.70798C7.72762 1.48551 7.63183 1.27214 7.46134 1.11483C7.29084 0.957518 7.0596 0.869141 6.81848 0.869141C6.57737 0.869141 6.34613 0.957518 6.17563 1.11483C6.00514 1.27214 5.90935 1.48551 5.90935 1.70798V2.1274H4.09109V1.70798C4.09109 1.48551 3.99531 1.27214 3.82481 1.11483C3.65432 0.957518 3.42308 0.869141 3.18196 0.869141C2.94084 0.869141 2.7096 0.957518 2.53911 1.11483C2.36861 1.27214 2.27283 1.48551 2.27283 1.70798V2.1274H1.13641C0.835018 2.1274 0.545967 2.23787 0.332848 2.43452C0.119729 2.63116 0 2.89786 0 3.17595V11.5644C0 11.8425 0.119729 12.1092 0.332848 12.3058C0.545967 12.5024 0.835018 12.6129 1.13641 12.6129H7.50033C7.56061 12.6129 7.61842 12.5908 7.66105 12.5515C7.70367 12.5122 7.72762 12.4588 7.72762 12.4032C7.72762 12.3476 7.70367 12.2943 7.66105 12.2549C7.61842 12.2156 7.56061 12.1935 7.50033 12.1935H1.13641C0.955743 12.193 0.782625 12.1266 0.654871 12.0087C0.527116 11.8908 0.455105 11.7311 0.454566 11.5644V5.06335H13.1824V8.62842C13.1824 8.68404 13.2063 8.73738 13.249 8.77671C13.2916 8.81604 13.3494 8.83813 13.4097 8.83813C13.47 8.83813 13.5278 8.81604 13.5704 8.77671C13.613 8.73738 13.637 8.68404 13.637 8.62842V3.17595C13.637 2.89786 13.5172 2.63116 13.3041 2.43452C13.091 2.23787 12.802 2.1274 12.5006 2.1274ZM10.0004 1.70798C10.0004 1.59674 10.0483 1.49006 10.1336 1.41141C10.2188 1.33275 10.3345 1.28856 10.455 1.28856C10.5756 1.28856 10.6912 1.33275 10.7764 1.41141C10.8617 1.49006 10.9096 1.59674 10.9096 1.70798V2.96624C10.9096 3.07748 10.8617 3.18416 10.7764 3.26282C10.6912 3.34148 10.5756 3.38567 10.455 3.38567C10.3345 3.38567 10.2188 3.34148 10.1336 3.26282C10.0483 3.18416 10.0004 3.07748 10.0004 2.96624V1.70798ZM6.36392 1.70798C6.36392 1.59674 6.41181 1.49006 6.49706 1.41141C6.58231 1.33275 6.69793 1.28856 6.81848 1.28856C6.93904 1.28856 7.05466 1.33275 7.13991 1.41141C7.22516 1.49006 7.27305 1.59674 7.27305 1.70798V2.96624C7.27305 3.07748 7.22516 3.18416 7.13991 3.26282C7.05466 3.34148 6.93904 3.38567 6.81848 3.38567C6.69793 3.38567 6.58231 3.34148 6.49706 3.26282C6.41181 3.18416 6.36392 3.07748 6.36392 2.96624V1.70798ZM2.72739 1.70798C2.72739 1.59674 2.77529 1.49006 2.86053 1.41141C2.94578 1.33275 3.0614 1.28856 3.18196 1.28856C3.30252 1.28856 3.41814 1.33275 3.50339 1.41141C3.58863 1.49006 3.63653 1.59674 3.63653 1.70798V2.96624C3.63653 3.07748 3.58863 3.18416 3.50339 3.26282C3.41814 3.34148 3.30252 3.38567 3.18196 3.38567C3.0614 3.38567 2.94578 3.34148 2.86053 3.26282C2.77529 3.18416 2.72739 3.07748 2.72739 2.96624V1.70798ZM13.1824 4.64393H0.454566V3.17595C0.455105 3.00925 0.527116 2.84952 0.654871 2.73164C0.782625 2.61376 0.955743 2.54732 1.13641 2.54682H2.27283V2.96624C2.27283 3.18872 2.36861 3.40208 2.53911 3.55939C2.7096 3.71671 2.94084 3.80509 3.18196 3.80509C3.42308 3.80509 3.65432 3.71671 3.82481 3.55939C3.99531 3.40208 4.09109 3.18872 4.09109 2.96624V2.54682H5.90935V2.96624C5.90935 3.18872 6.00514 3.40208 6.17563 3.55939C6.34613 3.71671 6.57737 3.80509 6.81848 3.80509C7.0596 3.80509 7.29084 3.71671 7.46134 3.55939C7.63183 3.40208 7.72762 3.18872 7.72762 2.96624V2.54682H9.54588V2.96624C9.54588 3.18872 9.64166 3.40208 9.81216 3.55939C9.98265 3.71671 10.2139 3.80509 10.455 3.80509C10.6961 3.80509 10.9274 3.71671 11.0979 3.55939C11.2684 3.40208 11.3641 3.18872 11.3641 2.96624V2.54682H12.5006C12.6812 2.54732 12.8543 2.61376 12.9821 2.73164C13.1099 2.84952 13.1819 3.00925 13.1824 3.17595V4.64393Z" fill="black"/>
<path d="M6.36206 6.53075C6.36206 6.41951 6.31417 6.31283 6.22892 6.23417C6.14368 6.15552 6.02806 6.11133 5.9075 6.11133H4.99837C4.87781 6.11133 4.76219 6.15552 4.67694 6.23417C4.59169 6.31283 4.5438 6.41951 4.5438 6.53075V7.15988C4.5438 7.27112 4.59169 7.3778 4.67694 7.45646C4.76219 7.53511 4.87781 7.5793 4.99837 7.5793H5.9075C6.02806 7.5793 6.14368 7.53511 6.22892 7.45646C6.31417 7.3778 6.36206 7.27112 6.36206 7.15988V6.53075ZM4.99837 7.15988V6.53075H5.9075V7.15988H4.99837ZM3.63467 6.53075C3.63467 6.41951 3.58678 6.31283 3.50153 6.23417C3.41628 6.15552 3.30066 6.11133 3.1801 6.11133H2.27097C2.15041 6.11133 2.03479 6.15552 1.94955 6.23417C1.8643 6.31283 1.81641 6.41951 1.81641 6.53075V7.15988C1.81641 7.27112 1.8643 7.3778 1.94955 7.45646C2.03479 7.53511 2.15041 7.5793 2.27097 7.5793H3.1801C3.30066 7.5793 3.41628 7.53511 3.50153 7.45646C3.58678 7.3778 3.63467 7.27112 3.63467 7.15988V6.53075ZM2.27097 7.15988V6.53075H3.1801V7.15988H2.27097ZM11.3623 7.5793C11.4828 7.5793 11.5985 7.53511 11.6837 7.45646C11.769 7.3778 11.8169 7.27112 11.8169 7.15988V6.53075C11.8169 6.41951 11.769 6.31283 11.6837 6.23417C11.5985 6.15552 11.4828 6.11133 11.3623 6.11133H10.4532C10.3326 6.11133 10.217 6.15552 10.1317 6.23417C10.0465 6.31283 9.99859 6.41951 9.99859 6.53075V7.15988C9.99859 7.27112 10.0465 7.3778 10.1317 7.45646C10.217 7.53511 10.3326 7.5793 10.4532 7.5793H11.3623ZM10.4532 6.53075H11.3623V7.15988H10.4532V6.53075ZM6.36206 8.41814C6.36206 8.3069 6.31417 8.20022 6.22892 8.12157C6.14368 8.04291 6.02806 7.99872 5.9075 7.99872H4.99837C4.87781 7.99872 4.76219 8.04291 4.67694 8.12157C4.59169 8.20022 4.5438 8.3069 4.5438 8.41814V9.04727C4.5438 9.15851 4.59169 9.26519 4.67694 9.34385C4.76219 9.42251 4.87781 9.46669 4.99837 9.46669H5.9075C6.02806 9.46669 6.14368 9.42251 6.22892 9.34385C6.31417 9.26519 6.36206 9.15851 6.36206 9.04727V8.41814ZM4.99837 9.04727V8.41814H5.9075V9.04727H4.99837ZM3.63467 8.41814C3.63467 8.3069 3.58678 8.20022 3.50153 8.12157C3.41628 8.04291 3.30066 7.99872 3.1801 7.99872H2.27097C2.15041 7.99872 2.03479 8.04291 1.94955 8.12157C1.8643 8.20022 1.81641 8.3069 1.81641 8.41814V9.04727C1.81641 9.15851 1.8643 9.26519 1.94955 9.34385C2.03479 9.42251 2.15041 9.46669 2.27097 9.46669H3.1801C3.30066 9.46669 3.41628 9.42251 3.50153 9.34385C3.58678 9.26519 3.63467 9.15851 3.63467 9.04727V8.41814ZM2.27097 9.04727V8.41814H3.1801V9.04727H2.27097ZM5.9075 9.88611H4.99837C4.87781 9.88611 4.76219 9.9303 4.67694 10.009C4.59169 10.0876 4.5438 10.1943 4.5438 10.3055V10.9347C4.5438 11.0459 4.59169 11.1526 4.67694 11.2312C4.76219 11.3099 4.87781 11.3541 4.99837 11.3541H5.9075C6.02806 11.3541 6.14368 11.3099 6.22892 11.2312C6.31417 11.1526 6.36206 11.0459 6.36206 10.9347V10.3055C6.36206 10.1943 6.31417 10.0876 6.22892 10.009C6.14368 9.9303 6.02806 9.88611 5.9075 9.88611ZM4.99837 10.9347V10.3055H5.9075V10.9347H4.99837ZM7.72576 7.5793H8.63489C8.75545 7.5793 8.87107 7.53511 8.95632 7.45646C9.04157 7.3778 9.08946 7.27112 9.08946 7.15988V6.53075C9.08946 6.41951 9.04157 6.31283 8.95632 6.23417C8.87107 6.15552 8.75545 6.11133 8.63489 6.11133H7.72576C7.6052 6.11133 7.48958 6.15552 7.40433 6.23417C7.31909 6.31283 7.27119 6.41951 7.27119 6.53075V7.15988C7.27119 7.27112 7.31909 7.3778 7.40433 7.45646C7.48958 7.53511 7.6052 7.5793 7.72576 7.5793ZM7.72576 6.53075H8.63489V7.15988H7.72576V6.53075ZM7.27119 9.04727C7.27119 9.15851 7.31909 9.26519 7.40433 9.34385C7.48958 9.42251 7.6052 9.46669 7.72576 9.46669C7.78604 9.46669 7.84385 9.4446 7.88647 9.40527C7.9291 9.36594 7.95304 9.3126 7.95304 9.25698C7.95304 9.20136 7.9291 9.14802 7.88647 9.1087C7.84385 9.06937 7.78604 9.04727 7.72576 9.04727V8.41814H8.63489C8.69517 8.41814 8.75298 8.39605 8.7956 8.35672C8.83823 8.31739 8.86217 8.26405 8.86217 8.20843C8.86217 8.15281 8.83823 8.09947 8.7956 8.06014C8.75298 8.02082 8.69517 7.99872 8.63489 7.99872H7.72576C7.6052 7.99872 7.48958 8.04291 7.40433 8.12157C7.31909 8.20022 7.27119 8.3069 7.27119 8.41814V9.04727ZM3.1801 9.88611H2.27097C2.15041 9.88611 2.03479 9.9303 1.94955 10.009C1.8643 10.0876 1.81641 10.1943 1.81641 10.3055V10.9347C1.81641 11.0459 1.8643 11.1526 1.94955 11.2312C2.03479 11.3099 2.15041 11.3541 2.27097 11.3541H3.1801C3.30066 11.3541 3.41628 11.3099 3.50153 11.2312C3.58678 11.1526 3.63467 11.0459 3.63467 10.9347V10.3055C3.63467 10.1943 3.58678 10.0876 3.50153 10.009C3.41628 9.9303 3.30066 9.88611 3.1801 9.88611ZM2.27097 10.9347V10.3055H3.1801V10.9347H2.27097Z" fill="black"/>
<path d="M10.6832 8C10.0988 8 9.52756 8.15989 9.04166 8.45945C8.55577 8.75902 8.17706 9.1848 7.95343 9.68295C7.7298 10.1811 7.67128 10.7293 7.78529 11.2581C7.8993 11.7869 8.1807 12.2727 8.59392 12.654C9.00714 13.0352 9.53361 13.2949 10.1068 13.4001C10.6799 13.5053 11.274 13.4513 11.8139 13.2449C12.3538 13.0386 12.8153 12.6892 13.1399 12.2408C13.4646 11.7925 13.6379 11.2654 13.6379 10.7262C13.637 10.0034 13.3254 9.3105 12.7715 8.79942C12.2176 8.28833 11.4665 8.00083 10.6832 8ZM10.6832 13.033C10.1887 13.033 9.70535 12.8978 9.29421 12.6443C8.88307 12.3908 8.56262 12.0305 8.37339 11.609C8.18417 11.1875 8.13465 10.7237 8.23112 10.2762C8.32759 9.82872 8.5657 9.41768 8.91535 9.09507C9.265 8.77246 9.71047 8.55275 10.1954 8.46375C10.6804 8.37474 11.1831 8.42042 11.6399 8.59502C12.0968 8.76961 12.4872 9.06528 12.762 9.44464C13.0367 9.82399 13.1833 10.27 13.1833 10.7262C13.1825 11.3378 12.9189 11.9241 12.4502 12.3566C11.9815 12.7891 11.346 13.0323 10.6832 13.033Z" fill="black"/>
<path d="M11.9955 9.84598L10.2277 11.4771L9.42424 10.7356C9.38138 10.6974 9.32396 10.6762 9.26437 10.6767C9.20478 10.6772 9.14777 10.6992 9.10563 10.7381C9.06349 10.777 9.03959 10.8296 9.03907 10.8846C9.03855 10.9396 9.06146 10.9925 9.10286 11.0321L10.067 11.9219C10.1096 11.9612 10.1674 11.9833 10.2277 11.9833C10.288 11.9833 10.3458 11.9612 10.3884 11.9219L12.3169 10.1425C12.3583 10.103 12.3812 10.05 12.3807 9.995C12.3801 9.94001 12.3562 9.88741 12.3141 9.84853C12.272 9.80965 12.215 9.7876 12.1554 9.78712C12.0958 9.78664 12.0384 9.80778 11.9955 9.84598Z" fill="black"/>
</g>
</svg>
