<svg width="15" height="13" viewBox="0 0 15 13" fill="none" xmlns="http://www.w3.org/2000/svg">
<g opacity="0.5">
<path d="M10.6479 2.11981C10.6463 2.08642 10.6377 2.05372 10.6228 2.02382C10.6078 1.99392 10.5868 1.96747 10.561 1.94617C9.75537 1.27846 8.76847 0.866895 7.72713 0.764351C7.5546 0.747191 7.37912 0.738611 7.20377 0.738461C7.20248 0.738461 7.20122 0.738281 7.19993 0.738281C7.19864 0.738281 7.19741 0.738461 7.19613 0.738461C7.02068 0.738461 6.84527 0.747191 6.67286 0.764351C5.89037 0.841145 5.13507 1.09249 4.46259 1.49987C3.79011 1.90726 3.21758 2.4603 2.78717 3.11828L2.78534 3.12095C2.16669 4.06398 1.86618 5.1803 1.92782 6.30646C1.98945 7.43263 2.40998 8.50948 3.12785 9.37938C3.14913 9.40517 3.17556 9.42624 3.20546 9.44122C3.23536 9.4562 3.26806 9.46477 3.30146 9.46638C3.30527 9.46656 3.30905 9.46662 3.31286 9.46662C3.3765 9.46662 3.43753 9.44135 3.48254 9.39636L10.5779 2.30089C10.6016 2.27724 10.62 2.24892 10.632 2.21774C10.6441 2.18656 10.6495 2.1532 10.6479 2.11981ZM6.42161 5.77829H4.94825C4.96862 5.16569 5.06866 4.55834 5.24585 3.97157C5.81441 4.0453 6.38668 4.08688 6.95993 4.09613V5.23997L6.42161 5.77829ZM2.40659 5.77829C2.44478 4.9843 2.68071 4.21243 3.09293 3.53276C3.64313 3.68726 4.20163 3.81053 4.76576 3.90197C4.58785 4.51236 4.48783 5.1428 4.46807 5.77829H2.40659ZM6.81014 1.23421C6.85991 1.23019 6.90983 1.22668 6.95993 1.22422V3.61613C6.43967 3.60749 5.92022 3.57136 5.40377 3.50789C5.72205 2.66664 6.19955 1.89465 6.81014 1.23421ZM5.94164 6.25829L5.03717 7.16273C4.98835 6.86345 4.95871 6.56135 4.94843 6.25829H5.94164ZM7.43994 4.09616C7.66994 4.0925 7.90015 4.08357 8.13057 4.06937L7.43994 4.75997V4.09616ZM8.65422 3.54569C8.2506 3.5859 7.84549 3.60938 7.43994 3.61607V1.22428C7.4901 1.22674 7.54008 1.23028 7.58994 1.23427C8.14661 1.83722 8.59329 2.53307 8.90973 3.29024L8.65422 3.54569ZM6.08093 1.34938C5.58275 1.97885 5.18955 2.68468 4.91654 3.43958C4.39848 3.35842 3.88514 3.24961 3.37871 3.1136C4.04731 2.22963 5.00268 1.60589 6.08093 1.34938ZM3.33494 8.865C2.77668 8.10584 2.45373 7.19941 2.4062 6.25829H4.46807C4.48217 6.70064 4.53498 7.1409 4.6259 7.57403L3.33494 8.865ZM9.2748 2.92499C9.02228 2.36231 8.70114 1.83302 8.3187 1.34917C8.94297 1.49804 9.53073 1.77152 10.0467 2.15317L9.2748 2.92499ZM11.6147 3.12116C11.509 2.96042 11.3946 2.80556 11.2721 2.65726C11.2508 2.63149 11.2243 2.61044 11.1944 2.59548C11.1645 2.58052 11.1318 2.57197 11.0984 2.57038C11.065 2.56879 11.0317 2.57419 11.0005 2.58625C10.9693 2.5983 10.941 2.61674 10.9173 2.64037L3.82193 9.73569C3.79829 9.75933 3.77985 9.78765 3.76779 9.81883C3.75573 9.85001 3.75032 9.88337 3.7519 9.91677C3.75349 9.95017 3.76203 9.98286 3.77699 10.0128C3.79195 10.0427 3.81298 10.0691 3.83876 10.0904C4.64441 10.7581 5.63131 11.1697 6.67265 11.2722C7.00753 11.3052 7.34478 11.3067 7.67994 11.2767V12.4983C7.67994 12.5466 7.69451 12.5937 7.72173 12.6336C7.74896 12.6735 7.78758 12.7042 7.83254 12.7218C7.87751 12.7394 7.92673 12.743 7.97378 12.7322C8.02084 12.7213 8.06352 12.6966 8.09628 12.6611L10.2487 10.3293C11.366 9.53894 12.1328 8.34574 12.3876 7.00111C12.6424 5.65649 12.3653 4.26545 11.6147 3.12113V3.12116ZM9.95181 9.9513C9.93779 9.96115 9.92486 9.97246 9.91323 9.98505L8.15994 11.8845V11.007C8.15994 10.9726 8.15255 10.9386 8.13827 10.9073C8.124 10.876 8.10316 10.8482 8.07718 10.8256C8.0512 10.8031 8.02069 10.7864 7.9877 10.7767C7.95471 10.767 7.92002 10.7645 7.88598 10.7694C7.81332 10.7798 7.74582 10.788 7.67955 10.7946C7.36054 10.8261 7.03921 10.8261 6.7202 10.7946C5.86338 10.7102 5.04541 10.3954 4.3532 9.88341L11.065 3.17159C11.1166 3.24159 11.1662 3.31267 11.2136 3.38483C11.8981 4.42862 12.1492 5.69799 11.9137 6.92381C11.6781 8.14963 10.9745 9.23553 9.95181 9.9513Z" fill="black"/>
<path d="M7.19875 8.8975C7.46385 8.8975 7.67875 8.6826 7.67875 8.4175C7.67875 8.1524 7.46385 7.9375 7.19875 7.9375C6.93365 7.9375 6.71875 8.1524 6.71875 8.4175C6.71875 8.6826 6.93365 8.8975 7.19875 8.8975Z" fill="black"/>
<path d="M8.64016 8.8975C8.90525 8.8975 9.12016 8.6826 9.12016 8.4175C9.12016 8.1524 8.90525 7.9375 8.64016 7.9375C8.37506 7.9375 8.16016 8.1524 8.16016 8.4175C8.16016 8.6826 8.37506 8.8975 8.64016 8.8975Z" fill="black"/>
<path d="M10.0796 8.8975C10.3447 8.8975 10.5596 8.6826 10.5596 8.4175C10.5596 8.1524 10.3447 7.9375 10.0796 7.9375C9.81451 7.9375 9.59961 8.1524 9.59961 8.4175C9.59961 8.6826 9.81451 8.8975 10.0796 8.8975Z" fill="black"/>
<path d="M1.91977 9.26034C1.85661 9.25245 1.79291 9.26997 1.74267 9.30905C1.69243 9.34813 1.65977 9.40556 1.65187 9.46872L1.63159 9.63072C0.775485 8.42452 0.375638 6.95346 0.503355 5.47985C0.631072 4.00624 1.27805 2.6259 2.32891 1.58498C2.35144 1.56283 2.36938 1.53645 2.38169 1.50735C2.394 1.47826 2.40045 1.44701 2.40066 1.41542C2.40087 1.38383 2.39484 1.3525 2.38291 1.32325C2.37099 1.29399 2.3534 1.26737 2.33117 1.24493C2.30893 1.22248 2.28249 1.20465 2.25334 1.19245C2.2242 1.18024 2.19293 1.17392 2.16134 1.17383C2.12975 1.17374 2.09845 1.17989 2.06923 1.19193C2.04002 1.20396 2.01347 1.22165 1.99111 1.24397C0.861983 2.36234 0.165743 3.84469 0.0260296 5.42778C-0.113684 7.01087 0.312171 8.59225 1.22797 9.89109L1.02517 9.86109C0.993993 9.85647 0.96221 9.85804 0.931638 9.86571C0.901066 9.87337 0.872303 9.88699 0.846991 9.90577C0.795872 9.9437 0.761915 10.0004 0.75259 10.0634C0.743265 10.1263 0.759336 10.1904 0.797267 10.2415C0.835199 10.2927 0.891883 10.3266 0.954851 10.3359L1.76485 10.4559C1.79648 10.4606 1.82873 10.4589 1.8597 10.451C1.89067 10.443 1.91974 10.429 1.9452 10.4096C1.97066 10.3903 1.992 10.366 2.00796 10.3383C2.02392 10.3106 2.03419 10.28 2.03815 10.2483L2.12815 9.52827C2.13206 9.497 2.12978 9.46526 2.12142 9.43487C2.11307 9.40447 2.09881 9.37603 2.07946 9.35115C2.06011 9.32627 2.03604 9.30544 2.00865 9.28986C1.98125 9.27428 1.95105 9.26425 1.91977 9.26034ZM13.1561 1.93847C13.2197 1.93847 13.2807 1.91318 13.3258 1.86817C13.3708 1.82316 13.3961 1.76212 13.3961 1.69847C13.3961 1.63482 13.3708 1.57377 13.3258 1.52876C13.2807 1.48375 13.2197 1.45847 13.1561 1.45847H12.4361C12.3724 1.45847 12.3114 1.48375 12.2663 1.52876C12.2213 1.57377 12.1961 1.63482 12.1961 1.69847V2.41847C12.1961 2.48212 12.2213 2.54317 12.2663 2.58817C12.3114 2.63318 12.3724 2.65847 12.4361 2.65847C12.4997 2.65847 12.5607 2.63318 12.6058 2.58817C12.6508 2.54317 12.6761 2.48212 12.6761 2.41847V2.33933C13.5504 3.53716 13.9696 5.00726 13.8585 6.48612C13.7473 7.96498 13.1131 9.3559 12.0695 10.4096C12.0247 10.4548 11.9997 10.516 12 10.5796C12.0003 10.6433 12.0259 10.7042 12.0711 10.749C12.1164 10.7938 12.1775 10.8188 12.2412 10.8185C12.3048 10.8182 12.3658 10.7926 12.4106 10.7474C13.5522 9.59466 14.2384 8.06781 14.3422 6.44872C14.4461 4.82963 13.9607 3.22763 12.9757 1.93847H13.1561Z" fill="black"/>
</g>
</svg>
