<svg width="7" height="10" viewBox="0 0 7 10" fill="none" xmlns="http://www.w3.org/2000/svg">
<path d="M3.5 0C1.57009 0 0 1.62465 0 3.62161C0 6.09989 3.13216 9.73816 3.26551 9.89183C3.39077 10.0362 3.60946 10.0359 3.73449 9.89183C3.86784 9.73816 7 6.09989 7 3.62161C6.99996 1.62465 5.42989 0 3.5 0ZM3.5 5.44374C2.52901 5.44374 1.73908 4.62633 1.73908 3.62161C1.73908 2.61688 2.52903 1.79949 3.5 1.79949C4.47097 1.79949 5.2609 2.6169 5.2609 3.62163C5.2609 4.62635 4.47097 5.44374 3.5 5.44374Z" fill="#D20001"/>
</svg>
