<svg width="61" height="59" viewBox="0 0 61 59" fill="none" xmlns="http://www.w3.org/2000/svg">
<g filter="url(#filter0_d_1686_1812)">
<path d="M30.1521 50.626C44.574 50.626 56.2652 39.293 56.2652 25.313C56.2652 11.333 44.574 0 30.1521 0C15.7303 0 4.03906 11.333 4.03906 25.313C4.03906 39.293 15.7303 50.626 30.1521 50.626Z" fill="white"/>
</g>
<path d="M25.918 22.375C25.918 22.1098 26.0267 21.8554 26.2201 21.6679C26.4136 21.4804 26.676 21.375 26.9496 21.375H35.2024C35.476 21.375 35.7384 21.4804 35.9319 21.6679C36.1253 21.8554 36.234 22.1098 36.234 22.375C36.234 22.6402 36.1253 22.8946 35.9319 23.0821C35.7384 23.2696 35.476 23.375 35.2024 23.375H26.9496C26.676 23.375 26.4136 23.2696 26.2201 23.0821C26.0267 22.8946 25.918 22.6402 25.918 22.375Z" fill="#6F767E"/>
<path d="M25.918 26.375C25.918 26.1098 26.0267 25.8554 26.2201 25.6679C26.4136 25.4804 26.676 25.375 26.9496 25.375H31.076C31.3496 25.375 31.612 25.4804 31.8055 25.6679C31.9989 25.8554 32.1076 26.1098 32.1076 26.375C32.1076 26.6402 31.9989 26.8946 31.8055 27.0821C31.612 27.2696 31.3496 27.375 31.076 27.375H26.9496C26.676 27.375 26.4136 27.2696 26.2201 27.0821C26.0267 26.8946 25.918 26.6402 25.918 26.375Z" fill="#6F767E"/>
<path d="M22.8334 35.109C22.2993 35.1064 21.786 34.9081 21.3964 34.554C21.1931 34.368 21.0316 34.1432 20.9221 33.8939C20.8125 33.6446 20.7573 33.376 20.7598 33.105V19.375C20.7598 18.5794 21.0859 17.8163 21.6663 17.2537C22.2467 16.6911 23.0339 16.375 23.8547 16.375H38.2972C39.118 16.375 39.9051 16.6911 40.4855 17.2537C41.0659 17.8163 41.392 18.5794 41.392 19.375V29.375C41.392 30.1706 41.0659 30.9337 40.4855 31.4963C39.9051 32.0589 39.118 32.375 38.2972 32.375H26.9495L24.1435 34.641C23.7777 34.9424 23.3135 35.1082 22.8334 35.109ZM23.8547 18.375C23.5811 18.375 23.3187 18.4804 23.1252 18.6679C22.9317 18.8554 22.8231 19.1098 22.8231 19.375V33.105L25.629 30.839C25.9997 30.5394 26.4669 30.3752 26.9495 30.375H38.2972C38.5708 30.375 38.8332 30.2696 39.0266 30.0821C39.2201 29.8946 39.3288 29.6402 39.3288 29.375V19.375C39.3288 19.1098 39.2201 18.8554 39.0266 18.6679C38.8332 18.4804 38.5708 18.375 38.2972 18.375H23.8547Z" fill="#6F767E"/>
<path d="M43.4547 18.375C43.4547 15.6136 41.1454 13.375 38.2967 13.375C35.448 13.375 33.1387 15.6136 33.1387 18.375C33.1387 21.1364 35.448 23.375 38.2967 23.375C41.1454 23.375 43.4547 21.1364 43.4547 18.375Z" fill="#FF6A55"/>
<path d="M44.4867 18.375C44.4867 15.0613 41.7155 12.375 38.2971 12.375C34.8786 12.375 32.1074 15.0613 32.1074 18.375C32.1074 21.6887 34.8786 24.375 38.2971 24.375C41.7155 24.375 44.4867 21.6887 44.4867 18.375Z" stroke="#FCFCFC" stroke-width="2" stroke-miterlimit="10"/>
<defs>
<filter id="filter0_d_1686_1812" x="0.0390625" y="0" width="60.2266" height="58.627" filterUnits="userSpaceOnUse" color-interpolation-filters="sRGB">
<feFlood flood-opacity="0" result="BackgroundImageFix"/>
<feColorMatrix in="SourceAlpha" type="matrix" values="0 0 0 0 0 0 0 0 0 0 0 0 0 0 0 0 0 0 127 0" result="hardAlpha"/>
<feOffset dy="4"/>
<feGaussianBlur stdDeviation="2"/>
<feComposite in2="hardAlpha" operator="out"/>
<feColorMatrix type="matrix" values="0 0 0 0 0 0 0 0 0 0 0 0 0 0 0 0 0 0 0.12 0"/>
<feBlend mode="normal" in2="BackgroundImageFix" result="effect1_dropShadow_1686_1812"/>
<feBlend mode="normal" in="SourceGraphic" in2="effect1_dropShadow_1686_1812" result="shape"/>
</filter>
</defs>
</svg>
