<svg width="62" height="59" viewBox="0 0 62 59" fill="none" xmlns="http://www.w3.org/2000/svg">
<g filter="url(#filter0_d_1686_1800)">
<path d="M31.0056 50.626C45.4275 50.626 57.1187 39.293 57.1187 25.313C57.1187 11.333 45.4275 0 31.0056 0C16.5838 0 4.89258 11.333 4.89258 25.313C4.89258 39.293 16.5838 50.626 31.0056 50.626Z" fill="white"/>
</g>
<path d="M29.8701 34.3758C28.7757 34.3758 27.7261 33.9543 26.9523 33.2042C26.1784 32.4541 25.7437 31.4366 25.7437 30.3758H20.9983C20.7087 30.3779 20.4251 30.2956 20.1844 30.1396C19.9436 29.9835 19.7568 29.7609 19.6483 29.5006C19.5397 29.2403 19.5144 28.9544 19.5756 28.68C19.6368 28.4056 19.7817 28.1553 19.9915 27.9618L21.054 26.9668C21.2534 26.7793 21.4119 26.5548 21.52 26.3068C21.6281 26.0587 21.6836 25.7921 21.6833 25.5228L21.673 22.3698C21.6697 20.2552 22.5331 18.226 24.0733 16.7285C25.6134 15.231 27.7042 14.388 29.8856 14.3848C32.067 14.3816 34.1604 15.2185 35.7052 16.7115C37.25 18.2045 38.1197 20.2312 38.123 22.3458V25.5458C38.1223 25.8085 38.1754 26.0688 38.2791 26.3115C38.3829 26.5542 38.5353 26.7745 38.7275 26.9598L39.7591 27.9598C39.963 28.1577 40.1019 28.4097 40.1581 28.684C40.2143 28.9584 40.1854 29.2427 40.075 29.5011C39.9646 29.7595 39.7777 29.9805 39.5379 30.136C39.298 30.2914 39.016 30.3746 38.7275 30.3748H33.9965C33.9955 31.4354 33.5604 32.4523 32.7868 33.2024C32.0132 33.9525 30.9643 34.3745 29.8701 34.3758ZM27.8069 30.3758C27.8069 30.9062 28.0243 31.4149 28.4112 31.79C28.7981 32.1651 29.3229 32.3758 29.8701 32.3758C30.4173 32.3758 30.9421 32.1651 31.329 31.79C31.716 31.4149 31.9333 30.9062 31.9333 30.3758H27.8069ZM29.9011 16.3758C29.0907 16.3758 28.2883 16.5308 27.5398 16.8319C26.7913 17.133 26.1115 17.5744 25.5393 18.1306C24.9671 18.6869 24.5137 19.3472 24.2052 20.0736C23.8967 20.7999 23.739 21.5782 23.7413 22.3638L23.7506 25.5178C23.751 26.0492 23.6427 26.5753 23.4319 27.0659C23.2212 27.5564 22.9123 28.0017 22.523 28.3758H37.2688C36.8845 28.0053 36.5797 27.5645 36.3722 27.0791C36.1646 26.5937 36.0585 26.0732 36.0598 25.5478V22.3458C36.0578 20.763 35.4084 19.2456 34.2538 18.1264C33.0992 17.0072 31.5339 16.3776 29.9011 16.3758Z" fill="#6F767E"/>
<path d="M42.2516 17.375C42.2516 14.6136 39.9423 12.375 37.0936 12.375C34.2449 12.375 31.9355 14.6136 31.9355 17.375C31.9355 20.1364 34.2449 22.375 37.0936 22.375C39.9423 22.375 42.2516 20.1364 42.2516 17.375Z" fill="#FF6A55"/>
<path d="M43.2836 17.375C43.2836 14.0613 40.5124 11.375 37.0939 11.375C33.6755 11.375 30.9043 14.0613 30.9043 17.375C30.9043 20.6887 33.6755 23.375 37.0939 23.375C40.5124 23.375 43.2836 20.6887 43.2836 17.375Z" stroke="#FCFCFC" stroke-width="2" stroke-miterlimit="10"/>
<defs>
<filter id="filter0_d_1686_1800" x="0.892578" y="0" width="60.2266" height="58.627" filterUnits="userSpaceOnUse" color-interpolation-filters="sRGB">
<feFlood flood-opacity="0" result="BackgroundImageFix"/>
<feColorMatrix in="SourceAlpha" type="matrix" values="0 0 0 0 0 0 0 0 0 0 0 0 0 0 0 0 0 0 127 0" result="hardAlpha"/>
<feOffset dy="4"/>
<feGaussianBlur stdDeviation="2"/>
<feComposite in2="hardAlpha" operator="out"/>
<feColorMatrix type="matrix" values="0 0 0 0 0 0 0 0 0 0 0 0 0 0 0 0 0 0 0.12 0"/>
<feBlend mode="normal" in2="BackgroundImageFix" result="effect1_dropShadow_1686_1800"/>
<feBlend mode="normal" in="SourceGraphic" in2="effect1_dropShadow_1686_1800" result="shape"/>
</filter>
</defs>
</svg>
