<svg width="18" height="23" viewBox="0 0 18 23" fill="none" xmlns="http://www.w3.org/2000/svg">
<g opacity="0.5">
<path d="M8.89255 0.880859C12.4904 0.880859 15.3686 3.64546 15.3686 7.10121V9.86582C16.5919 9.86582 17.5273 10.7643 17.5273 11.9393V20.9242C17.5273 22.0992 16.5919 22.9977 15.3686 22.9977H2.41645C1.19319 22.9977 0.257755 22.0992 0.257755 20.9242V11.9393C0.257755 10.7643 1.19319 9.86582 2.41645 9.86582V7.10121C2.41645 3.64546 5.29472 0.880859 8.89255 0.880859ZM1.69689 11.9393V20.9242C1.69689 21.3389 1.98471 21.6154 2.41645 21.6154H15.3686C15.8004 21.6154 16.0882 21.3389 16.0882 20.9242V11.9393C16.0882 11.5246 15.8004 11.2481 15.3686 11.2481H2.41645C1.98471 11.2481 1.69689 11.5246 1.69689 11.9393ZM13.9295 9.86582V7.10121C13.9295 4.40573 11.6989 2.26316 8.89255 2.26316C6.08624 2.26316 3.85559 4.40573 3.85559 7.10121V9.86582H13.9295Z" fill="black"/>
<path d="M8.89208 13.3223C10.1153 13.3223 11.0508 14.2208 11.0508 15.3957C11.0508 16.2942 10.4751 17.0545 9.61165 17.3309V18.8515C9.61165 19.2662 9.32382 19.5426 8.89208 19.5426C8.46034 19.5426 8.17252 19.2662 8.17252 18.8515V17.3309C7.30904 17.0545 6.73338 16.2942 6.73338 15.3957C6.73338 14.2208 7.66882 13.3223 8.89208 13.3223ZM8.89208 16.0869C9.32382 16.0869 9.61165 15.8104 9.61165 15.3957C9.61165 14.981 9.32382 14.7046 8.89208 14.7046C8.46034 14.7046 8.17252 14.981 8.17252 15.3957C8.17252 15.8104 8.46034 16.0869 8.89208 16.0869Z" fill="black"/>
</g>
</svg>
