<svg width="17" height="15" viewBox="0 0 17 15" fill="none" xmlns="http://www.w3.org/2000/svg">
<g opacity="0.5">
<path d="M3.28288 9.97381C4.88679 11.7429 6.81755 13.1357 9.02124 14.1213C9.86026 14.4881 10.9823 14.9234 12.2324 14.998C12.3099 15.0011 12.3841 15.0042 12.4616 15.0042C13.3006 15.0042 13.9745 14.7369 14.5237 14.1866C14.5271 14.1835 14.5338 14.1772 14.5372 14.171C14.7327 13.9534 14.955 13.7575 15.1875 13.5492C15.3459 13.4093 15.5077 13.2632 15.6627 13.1139C16.3804 12.4237 16.3804 11.547 15.6559 10.8785L13.6308 9.01001C13.2871 8.68045 12.876 8.50634 12.4447 8.50634C12.0134 8.50634 11.599 8.68045 11.2452 9.0069L10.0389 10.1199C9.92766 10.0609 9.81309 10.008 9.70526 9.95827C9.57048 9.89609 9.44581 9.83701 9.33461 9.77172C8.23613 9.12815 7.23874 8.28871 6.28516 7.20987C5.80331 6.64714 5.47983 6.17456 5.25407 5.69266C5.57081 5.42839 5.86733 5.15169 6.15375 4.8812C6.25483 4.78482 6.35929 4.68844 6.46374 4.59206C6.82766 4.25628 7.02309 3.86765 7.02309 3.4728C7.02309 3.07795 6.83103 2.68932 6.46374 2.35355L5.45962 1.42705C5.34168 1.31823 5.23048 1.21253 5.11592 1.10371C4.89353 0.892296 4.66103 0.674662 4.4319 0.478793C4.08483 0.164779 3.67712 0 3.24581 0C2.81788 0 2.40679 0.164779 2.04625 0.481902L0.786031 1.64468C0.327771 2.06751 0.0683142 2.58051 0.0144012 3.17433C-0.0496205 3.91739 0.0986403 4.70709 0.48277 5.66157C1.07244 7.13836 1.96201 8.50945 3.28288 9.97381ZM0.836575 3.23962C0.877009 2.82612 1.04886 2.48102 1.37234 2.18255L2.62581 1.02598C2.82125 0.851878 3.0369 0.761716 3.24581 0.761716C3.45136 0.761716 3.66027 0.851878 3.85233 1.0322C4.07809 1.22496 4.29038 1.42705 4.51951 1.64158C4.63407 1.75039 4.75201 1.85921 4.86994 1.97113L5.87407 2.89763C6.08298 3.09039 6.19081 3.28626 6.19081 3.47902C6.19081 3.67178 6.08298 3.86765 5.87407 4.06041C5.76961 4.15679 5.66516 4.25628 5.5607 4.35266C5.24733 4.64491 4.95418 4.92162 4.6307 5.18588L4.61386 5.20143C4.33418 5.45948 4.37799 5.7051 4.44538 5.89164C4.44875 5.90096 4.45212 5.90718 4.45549 5.91651C4.71494 6.49168 5.07548 7.03887 5.6382 7.69177C6.64907 8.84212 7.71385 9.73442 8.88646 10.4215C9.03135 10.5086 9.18635 10.577 9.33124 10.6454C9.46602 10.7075 9.5907 10.7666 9.70189 10.8319C9.71537 10.8381 9.72548 10.8443 9.73896 10.8506C9.85016 10.9034 9.95798 10.9283 10.0658 10.9283C10.3354 10.9283 10.5106 10.7697 10.5679 10.7169L11.8281 9.55409C12.0235 9.37377 12.2358 9.27739 12.4447 9.27739C12.7008 9.27739 12.9097 9.42351 13.0411 9.55409L15.073 11.4257C15.4773 11.7988 15.474 12.203 15.0629 12.5978C14.9213 12.7378 14.7731 12.8714 14.6147 13.0113C14.3788 13.2228 14.1329 13.4404 13.9105 13.686C13.523 14.0715 13.0613 14.2519 12.4649 14.2519C12.4077 14.2519 12.347 14.2487 12.2897 14.2456C11.1845 14.1803 10.1568 13.7824 9.38516 13.4435C7.28929 12.5077 5.44951 11.1801 3.92309 9.49502C2.66625 8.09906 1.82049 6.79948 1.26114 5.40663C0.914075 4.55164 0.782662 3.86454 0.836575 3.23962Z" fill="black"/>
</g>
</svg>
