<svg width="20" height="19" viewBox="0 0 20 19" fill="none" xmlns="http://www.w3.org/2000/svg">
<path d="M18.5689 19C18.4334 19.0003 18.2992 18.9746 18.174 18.9243C18.0488 18.874 17.9351 18.8001 17.8396 18.707V18.707C16.2578 17.1731 13.787 17.1649 11.6517 17.7084C10.8843 17.9037 10.0888 18.0031 9.28446 18C7.44817 18 5.65312 17.4722 4.12629 16.4832C2.59947 15.4943 1.40946 14.0887 0.706742 12.4442C0.00402283 10.7996 -0.17984 8.99002 0.178402 7.24419C0.536645 5.49836 1.4209 3.89472 2.71936 2.63604C4.01781 1.37737 5.67215 0.520203 7.47316 0.172937C9.27416 -0.17433 11.141 0.00389957 12.8375 0.685088C14.534 1.36628 15.984 2.51983 17.0042 3.99987C18.0244 5.47991 18.5689 7.21997 18.5689 9C18.5721 9.75655 18.4758 10.505 18.2861 11.2283C17.736 13.3263 17.7417 15.7837 19.2993 17.293V17.293C19.4436 17.4329 19.5418 17.6112 19.5816 17.8052C19.6213 17.9993 19.6008 18.2004 19.5226 18.3831C19.4444 18.5659 19.3121 18.722 19.1423 18.8318C18.9726 18.9416 18.773 19.0002 18.5689 19ZM9.28446 2C7.85624 2 6.46008 2.41055 5.27255 3.17972C4.08503 3.94889 3.15946 5.04214 2.6129 6.32122C2.06634 7.6003 1.92334 9.00777 2.20197 10.3656C2.48061 11.7235 3.16836 12.9708 4.17827 13.9498C5.18818 14.9287 6.47488 15.5954 7.87567 15.8655C9.27645 16.1356 10.7284 15.997 12.0479 15.4672C13.3674 14.9373 14.4952 14.0401 15.2887 12.889C16.0822 11.7379 16.5057 10.3845 16.5057 9C16.5035 7.14414 15.742 5.36489 14.3882 4.0526C13.0345 2.7403 11.199 2.00212 9.28446 2Z" fill="#6F767E"/>
</svg>
