<svg width="12" height="13" viewBox="0 0 12 13" fill="none" xmlns="http://www.w3.org/2000/svg">
<g opacity="0.5">
<path d="M5.99996 12.7382C4.81328 12.7382 3.65325 12.3863 2.66656 11.727C1.67988 11.0677 0.910845 10.1307 0.456723 9.03433C0.00259965 7.93798 -0.11622 6.73159 0.11529 5.56771C0.3468 4.40383 0.918241 3.33474 1.75735 2.49563C2.59646 1.65652 3.66555 1.08508 4.82943 0.853572C5.99331 0.622062 7.1997 0.740881 8.29605 1.195C9.3924 1.64913 10.3295 2.41816 10.9888 3.40485C11.648 4.39153 11.9999 5.55157 11.9999 6.73825C11.9999 6.87584 11.9953 7.01484 11.9859 7.15184C11.9841 7.17811 11.9772 7.20376 11.9655 7.22734C11.9538 7.25093 11.9376 7.27197 11.9177 7.28928C11.8979 7.30659 11.8748 7.31982 11.8499 7.32822C11.825 7.33662 11.7986 7.34003 11.7723 7.33824C11.7461 7.33646 11.7204 7.32951 11.6968 7.31781C11.6732 7.30611 11.6522 7.28988 11.6349 7.27005C11.6176 7.25021 11.6043 7.22716 11.5959 7.20221C11.5875 7.17727 11.5841 7.15091 11.5859 7.12464C11.5945 6.99664 11.5989 6.86664 11.5989 6.73825C11.5989 5.63068 11.2705 4.54798 10.6552 3.62707C10.0398 2.70616 9.16524 1.9884 8.14198 1.56455C7.11872 1.14071 5.99275 1.02981 4.90647 1.24588C3.82018 1.46196 2.82236 1.9953 2.03919 2.77847C1.25602 3.56164 0.722678 4.55946 0.506602 5.64575C0.290526 6.73203 0.401424 7.858 0.825272 8.88126C1.24912 9.90452 1.96688 10.7791 2.88779 11.3944C3.8087 12.0098 4.8914 12.3382 5.99896 12.3382C6.1922 12.3382 6.38531 12.3283 6.57756 12.3088C6.60412 12.3053 6.63111 12.3072 6.65693 12.3143C6.68276 12.3214 6.70689 12.3336 6.72789 12.3503C6.7489 12.3669 6.76635 12.3876 6.77921 12.4111C6.79207 12.4346 6.80007 12.4604 6.80275 12.4871C6.80543 12.5137 6.80273 12.5407 6.79481 12.5662C6.78688 12.5918 6.7739 12.6156 6.75663 12.636C6.73935 12.6565 6.71814 12.6733 6.69425 12.6854C6.67037 12.6976 6.64428 12.7048 6.61756 12.7066C6.41236 12.7276 6.20623 12.7382 5.99996 12.7382Z" fill="black"/>
<path d="M6.00115 12.7382C4.43116 12.7382 3.20117 10.1026 3.20117 6.73824C3.20117 3.37386 4.43116 0.738281 6.00115 0.738281C7.37595 0.738281 8.53714 2.83447 8.76214 5.72265C8.76419 5.74883 8.76106 5.77517 8.75293 5.80014C8.7448 5.82512 8.73183 5.84825 8.71477 5.86821C8.6977 5.88818 8.67687 5.90459 8.65346 5.9165C8.63005 5.92841 8.60452 5.9356 8.57834 5.93765C8.55215 5.9397 8.52582 5.93657 8.50084 5.92844C8.47587 5.92031 8.45274 5.90734 8.43277 5.89028C8.41281 5.87321 8.3964 5.85238 8.38449 5.82897C8.37257 5.80556 8.36539 5.78003 8.36334 5.75385C8.15834 3.12247 7.14275 1.13828 6.00115 1.13828C4.70016 1.13828 3.60117 3.70266 3.60117 6.73824C3.60117 9.77382 4.70116 12.3382 6.00115 12.3382C6.0542 12.3382 6.10507 12.3593 6.14258 12.3968C6.18008 12.4343 6.20115 12.4852 6.20115 12.5382C6.20115 12.5912 6.18008 12.6421 6.14258 12.6796C6.10507 12.7171 6.0542 12.7382 6.00115 12.7382Z" fill="black"/>
<path d="M6.39896 6.93709H0.199999C0.146956 6.93709 0.0960853 6.91602 0.0585783 6.87851C0.0210712 6.841 0 6.79013 0 6.73709C0 6.68405 0.0210712 6.63318 0.0585783 6.59567C0.0960853 6.55816 0.146956 6.53709 0.199999 6.53709H6.39896C6.452 6.53709 6.50287 6.55816 6.54038 6.59567C6.57789 6.63318 6.59896 6.68405 6.59896 6.73709C6.59896 6.79013 6.57789 6.841 6.54038 6.87851C6.50287 6.91602 6.452 6.93709 6.39896 6.93709ZM0.999994 3.53711H10.9999V3.93711H0.999994V3.53711ZM4.99897 9.93707H0.999994C0.946951 9.93707 0.89608 9.916 0.858573 9.87849C0.821066 9.84098 0.799995 9.79011 0.799995 9.73707C0.799995 9.68403 0.821066 9.63316 0.858573 9.59565C0.89608 9.55814 0.946951 9.53707 0.999994 9.53707H4.99897C5.05201 9.53707 5.10288 9.55814 5.14039 9.59565C5.1779 9.63316 5.19897 9.68403 5.19897 9.73707C5.19897 9.79011 5.1779 9.84098 5.14039 9.87849C5.10288 9.916 5.05201 9.93707 4.99897 9.93707ZM8.79894 12.7371C8.16605 12.7371 7.54736 12.5494 7.02113 12.1978C6.4949 11.8461 6.08475 11.3464 5.84255 10.7617C5.60035 10.1769 5.53698 9.53352 5.66045 8.91279C5.78392 8.29205 6.08869 7.72187 6.53622 7.27434C6.98374 6.82682 7.55392 6.52205 8.17466 6.39858C8.79539 6.27511 9.4388 6.33848 10.0235 6.58068C10.6082 6.82287 11.108 7.23302 11.4596 7.75926C11.8112 8.28549 11.9989 8.90418 11.9989 9.53707C11.9979 10.3855 11.6605 11.1988 11.0606 11.7987C10.4607 12.3986 9.64732 12.736 8.79894 12.7371ZM8.79894 6.73709C8.24516 6.73709 7.70381 6.90131 7.24336 7.20897C6.7829 7.51664 6.42402 7.95393 6.2121 8.46556C6.00017 8.97719 5.94472 9.54018 6.05276 10.0833C6.1608 10.6265 6.42747 11.1254 6.81906 11.517C7.21064 11.9085 7.70955 12.1752 8.25269 12.2833C8.79584 12.3913 9.35882 12.3358 9.87045 12.1239C10.3821 11.912 10.8194 11.5531 11.127 11.0927C11.4347 10.6322 11.5989 10.0909 11.5989 9.53707C11.5981 8.79471 11.3029 8.08299 10.778 7.55806C10.253 7.03314 9.5413 6.73788 8.79894 6.73709Z" fill="black"/>
<path d="M8.79957 9.73894C8.76002 9.73893 8.72136 9.72719 8.68847 9.70522C8.65559 9.68324 8.62996 9.65201 8.61483 9.61547C8.5997 9.57893 8.59574 9.53872 8.60345 9.49993C8.61116 9.46114 8.6302 9.42551 8.65817 9.39754L10.0582 7.99755C10.0959 7.96112 10.1464 7.94096 10.1988 7.94141C10.2513 7.94187 10.3014 7.9629 10.3385 7.99998C10.3756 8.03707 10.3966 8.08723 10.3971 8.13967C10.3975 8.19211 10.3774 8.24263 10.341 8.28035L8.94096 9.68034C8.90347 9.71785 8.8526 9.73893 8.79957 9.73894Z" fill="black"/>
<path d="M8.7992 9.73944C8.74616 9.73942 8.6953 9.71835 8.6578 9.68084L7.85781 8.88084C7.82138 8.84312 7.80122 8.7926 7.80167 8.74016C7.80213 8.68772 7.82316 8.63756 7.86024 8.60048C7.89733 8.5634 7.94749 8.54236 7.99993 8.54191C8.05237 8.54145 8.10289 8.56161 8.14061 8.59804L8.9406 9.39804C8.96856 9.42601 8.9876 9.46164 8.99532 9.50043C9.00303 9.53922 8.99907 9.57943 8.98394 9.61597C8.9688 9.65251 8.94317 9.68374 8.91029 9.70572C8.87741 9.72769 8.83875 9.73943 8.7992 9.73944ZM8.7992 7.73945C8.74616 7.73945 8.69529 7.71838 8.65778 7.68087C8.62027 7.64336 8.5992 7.59249 8.5992 7.53945V7.13945C8.5992 7.08641 8.62027 7.03554 8.65778 6.99803C8.69529 6.96052 8.74616 6.93945 8.7992 6.93945C8.85225 6.93945 8.90312 6.96052 8.94062 6.99803C8.97813 7.03554 8.9992 7.08641 8.9992 7.13945V7.53945C8.9992 7.59249 8.97813 7.64336 8.94062 7.68087C8.90312 7.71838 8.85225 7.73945 8.7992 7.73945ZM6.79921 9.73944H6.39922C6.34617 9.73944 6.2953 9.71836 6.2578 9.68086C6.22029 9.64335 6.19922 9.59248 6.19922 9.53944C6.19922 9.48639 6.22029 9.43552 6.2578 9.39802C6.2953 9.36051 6.34617 9.33944 6.39922 9.33944H6.79921C6.85226 9.33944 6.90313 9.36051 6.94064 9.39802C6.97814 9.43552 6.99921 9.48639 6.99921 9.53944C6.99921 9.59248 6.97814 9.64335 6.94064 9.68086C6.90313 9.71836 6.85226 9.73944 6.79921 9.73944ZM8.7992 12.1394C8.74616 12.1394 8.69529 12.1183 8.65778 12.0808C8.62027 12.0433 8.5992 11.9925 8.5992 11.9394V11.5394C8.5992 11.4864 8.62027 11.4355 8.65778 11.398C8.69529 11.3605 8.74616 11.3394 8.7992 11.3394C8.85225 11.3394 8.90312 11.3605 8.94062 11.398C8.97813 11.4355 8.9992 11.4864 8.9992 11.5394V11.9394C8.9992 11.9925 8.97813 12.0433 8.94062 12.0808C8.90312 12.1183 8.85225 12.1394 8.7992 12.1394ZM11.1992 9.73944H10.7992C10.7461 9.73944 10.6953 9.71836 10.6578 9.68086C10.6203 9.64335 10.5992 9.59248 10.5992 9.53944C10.5992 9.48639 10.6203 9.43552 10.6578 9.39802C10.6953 9.36051 10.7461 9.33944 10.7992 9.33944H11.1992C11.2522 9.33944 11.3031 9.36051 11.3406 9.39802C11.3781 9.43552 11.3992 9.48639 11.3992 9.53944C11.3992 9.59248 11.3781 9.64335 11.3406 9.68086C11.3031 9.71836 11.2522 9.73944 11.1992 9.73944Z" fill="black"/>
</g>
</svg>
