<svg width="22" height="24" viewBox="0 0 22 24" fill="none" xmlns="http://www.w3.org/2000/svg">
<g opacity="0.5">
<path d="M11.0177 11.9385C12.198 11.9385 13.3518 11.6024 14.3331 10.9725C15.3145 10.3427 16.0794 9.44747 16.5311 8.40009C16.9827 7.35272 17.1009 6.20021 16.8707 5.08832C16.6404 3.97643 16.072 2.95509 15.2375 2.15346C14.4029 1.35183 13.3395 0.805919 12.1819 0.58475C11.0243 0.363581 9.82444 0.477093 8.734 0.910931C7.64356 1.34477 6.71155 2.07945 6.05582 3.02206C5.40009 3.96468 5.05009 5.0729 5.05009 6.20657C5.05209 7.72619 5.68146 9.18302 6.80017 10.2576C7.91889 11.3321 9.43561 11.9366 11.0177 11.9385ZM11.0177 2.2847C11.8253 2.2847 12.6147 2.51472 13.2862 2.94566C13.9576 3.3766 14.481 3.98911 14.79 4.70574C15.0991 5.42236 15.1799 6.21092 15.0224 6.97169C14.8648 7.73246 14.4759 8.43126 13.9049 8.97975C13.3339 9.52823 12.6063 9.90175 11.8143 10.0531C11.0222 10.2044 10.2013 10.1267 9.45517 9.8299C8.70908 9.53306 8.07139 9.03039 7.62273 8.38544C7.17407 7.74049 6.9346 6.98224 6.9346 6.20657C6.93593 5.16682 7.36654 4.17002 8.13199 3.4348C8.89743 2.69959 9.93521 2.28598 11.0177 2.2847ZM21.6552 18.66L21.4931 18.3076C20.9415 16.9849 19.9969 15.8472 18.7768 15.0365C17.5568 14.2258 16.1154 13.7779 14.6322 13.7486H7.41201C5.92909 13.7778 4.4879 14.2255 3.26808 15.036C2.04827 15.8465 1.10379 16.9839 0.55239 18.3064L0.377759 18.6829C0.102563 19.2869 -0.0134305 19.9468 0.0400365 20.6041C0.0935035 21.2614 0.314784 21.8959 0.684306 22.4515C0.988421 22.9235 1.41222 23.3137 1.91604 23.5855C2.41986 23.8573 2.98725 24.0019 3.5651 24.0058H18.4565C19.0361 24.0019 19.6053 23.8569 20.1106 23.5842C20.616 23.3115 21.0411 22.9202 21.3461 22.4467C21.7176 21.8885 21.9401 21.251 21.994 20.5905C22.0479 19.93 21.9315 19.267 21.6552 18.66ZM19.7706 21.4584C19.6342 21.6773 19.4425 21.8597 19.2132 21.9886C18.984 22.1174 18.7246 22.1887 18.459 22.1957H3.5651C3.30147 22.1888 3.04394 22.1181 2.81639 21.99C2.58885 21.8619 2.39868 21.6807 2.26353 21.4632C2.06211 21.1608 1.94188 20.8151 1.91359 20.4571C1.88531 20.0991 1.94986 19.74 2.10146 19.4118L2.27609 19.0353C2.68331 18.0362 3.3872 17.174 4.3003 16.5559C5.2134 15.9378 6.29545 15.5911 7.41201 15.5587H14.6322C15.7492 15.5914 16.8316 15.9387 17.7447 16.5574C18.6579 17.1762 19.3615 18.0391 19.7681 19.0389L19.9302 19.3913C20.0822 19.7221 20.147 20.0838 20.1187 20.4443C20.0904 20.8049 19.97 21.1532 19.7681 21.4584H19.7706Z" fill="black"/>
</g>
</svg>
